# xmcd CD database file
#
# Track frame offsets:
#	150
#	12161
#	20409
#	31105
#	47368
#	63938
#	71609
#	89155
#	102654
#	113064
#
# Disc length: 1742 seconds
#
# Revision: 0
# Processed by: cddbd v1.5.1PL0 Copyright (c) Steve Scherf et al.
# Submitted via: CDex 1.51
#
DISCID=7b06cc0a
DTITLE=La position du tireur couché - Acapulco
DYEAR=2005
DGENRE=Francophone
TTITLE0=Acapulco
TTITLE1=Je suis un branleur
TTITLE2=Les femmes mariées
TTITLE3=Je m'en lasse
TTITLE4=Bête
TTITLE5=Les plages de Berck
TTITLE6=On flanche
TTITLE7=Le James Bond du quartier
TTITLE8=Steve Austin
TTITLE9=Ce que l'on peut s'emmerder
EXTD=YEAR: 2005
EXTT0=
EXTT1=
EXTT2=
EXTT3=
EXTT4=
EXTT5=
EXTT6=
EXTT7=
EXTT8=
EXTT9=
PLAYORDER=
